<svg width="61" height="72" viewBox="0 0 61 72" fill="none" xmlns="http://www.w3.org/2000/svg">
<g clip-path="url(#clip0_62_2739)">
<path d="M18.8893 0.724704C18.5458 0.726916 18.2083 0.814634 17.9072 0.979939C16.9186 1.52791 16.5561 2.79799 17.1038 3.78588L19.3358 7.81619C13.9583 11.1431 10.395 16.8263 10.395 23.3126V24.5178C9.36216 23.3295 7.84411 22.5792 6.14794 22.5792C3.04013 22.5792 0.516846 25.1025 0.516846 28.2101V45.556C0.516846 48.6633 3.04036 51.1868 6.14794 51.1868C7.84411 51.1868 9.36216 50.4364 10.3948 49.2481V51.6778C10.3948 54.9537 13.0754 57.634 16.3512 57.634H17.8625V65.3503C17.8625 68.4581 20.386 70.9814 23.4936 70.9814C26.6011 70.9814 29.1244 68.4579 29.1244 65.3503V57.634H31.7391V65.3503C31.7391 68.4581 34.2626 70.9814 37.3702 70.9814C40.4778 70.9814 43.0011 68.4579 43.0011 65.3503V57.634H44.5125C47.7882 57.634 50.4687 54.9537 50.4687 51.6778V49.2481C51.5014 50.4364 53.0197 51.1868 54.7158 51.1868C57.8234 51.1868 60.3467 48.6633 60.3467 45.556V28.2101C60.3467 25.1025 57.8234 22.5792 54.7158 22.5792C53.0197 22.5792 51.5014 23.3295 50.4687 24.5178V23.5165V23.4591C50.4692 23.3981 50.4687 23.3494 50.4687 23.3126C50.4687 16.8274 46.8973 11.1499 41.5217 7.82275L43.76 3.78588C44.3075 2.79799 43.9451 1.52791 42.9565 0.979939C42.6555 0.814634 42.318 0.726916 41.9745 0.724704C41.2444 0.717673 40.5279 1.10252 40.1506 1.78338L37.8101 6.0115C35.5217 5.16705 33.0317 4.70416 30.432 4.70416C27.8347 4.70416 25.34 5.16213 23.0534 6.00494L20.7132 1.78338C20.3356 1.10252 19.6193 0.718142 18.8893 0.724704Z" fill="white"/>
<path d="M6.14803 24.0459C3.82912 24.0459 1.98389 25.8911 1.98389 28.21V45.5559C1.98389 47.8748 3.82912 49.72 6.14803 49.72C8.46693 49.72 10.3124 47.8748 10.3124 45.5559V28.21C10.3124 25.8911 8.46693 24.0459 6.14803 24.0459ZM54.7162 24.0459C52.397 24.0459 50.5518 25.8911 50.5518 28.21V45.5559C50.5518 47.8748 52.397 49.72 54.7162 49.72C57.0351 49.72 58.8803 47.8748 58.8803 45.5559V28.21C58.8803 25.8911 57.0351 24.0459 54.7162 24.0459Z" fill="#A4C639"/>
<path d="M23.4938 43.8403C21.1749 43.8403 19.3295 45.6856 19.3295 48.0047V65.3503C19.3295 67.6692 21.1749 69.5145 23.4938 69.5145C25.8127 69.5145 27.658 67.6692 27.658 65.3503V48.0047C27.658 45.6856 25.8127 43.8403 23.4938 43.8403ZM37.3705 43.8403C35.0513 43.8403 33.2061 45.6856 33.2061 48.0047V65.3503C33.2061 67.6692 35.0513 69.5145 37.3705 69.5145C39.6894 69.5145 41.5346 67.6692 41.5346 65.3503V48.0047C41.5346 45.6856 39.6894 43.8403 37.3705 43.8403Z" fill="#A4C639"/>
<path d="M18.9019 2.19149C18.8034 2.19267 18.7068 2.21897 18.6213 2.26789C18.3244 2.43243 18.2269 2.77368 18.3916 3.07133L21.3253 8.37078C15.6815 11.3075 11.8692 16.8882 11.8617 23.2932H49.0019C48.9942 16.8882 45.1821 11.3073 39.5383 8.37078L42.4718 3.07157C42.6368 2.77391 42.539 2.43243 42.2421 2.26789C42.1566 2.21894 42.06 2.19264 41.9615 2.19149C41.7506 2.18914 41.5512 2.29461 41.4387 2.49758L38.4668 7.85422C36.0358 6.7761 33.3091 6.17071 30.4317 6.17071C27.5543 6.17071 24.8278 6.77586 22.3966 7.85422L19.4248 2.49758C19.3741 2.40355 19.2985 2.32527 19.2063 2.27128C19.1141 2.2173 19.0089 2.1897 18.9021 2.19149H18.9019ZM11.8617 24.7599V51.6779C11.8604 52.2678 11.9757 52.8521 12.2009 53.3974C12.426 53.9426 12.7567 54.438 13.1738 54.8552C13.591 55.2723 14.0864 55.6029 14.6316 55.828C15.1769 56.0532 15.7612 56.1684 16.3512 56.1671H44.5125C45.1024 56.1684 45.6868 56.0532 46.2321 55.828C46.7773 55.6028 47.2728 55.2722 47.6899 54.8551C48.107 54.4379 48.4377 53.9425 48.6628 53.3972C48.888 52.852 49.0032 52.2676 49.0019 51.6777V24.7602H11.8617V24.7599Z" fill="#A4C639"/>
<path d="M21.8608 13.396C21.0131 13.396 20.3112 14.0977 20.3112 14.9455C20.3112 15.7934 21.0131 16.4951 21.8608 16.4951C22.7088 16.4951 23.4105 15.7934 23.4105 14.9455C23.4105 14.0977 22.7088 13.396 21.8608 13.396ZM39.0026 13.396C38.1546 13.396 37.4529 14.0977 37.4529 14.9455C37.4529 15.7934 38.1546 16.4951 39.0026 16.4951C39.8503 16.4951 40.5522 15.7934 40.5522 14.9455C40.5522 14.0977 39.8503 13.396 39.0026 13.396Z" fill="white"/>
</g>
<defs>
<clipPath id="clip0_62_2739">
<rect width="60" height="70.5469" fill="white" transform="translate(0.516846 0.523438)"/>
</clipPath>
</defs>
</svg>
