<svg width="61" height="72" fill="none" xmlns="http://www.w3.org/2000/svg"><g clip-path="url(#a)"><path d="M18.89.725c-.344.002-.682.09-.983.255a2.077 2.077 0 0 0-.803 2.806l2.232 4.03c-5.378 3.327-8.941 9.01-8.941 15.497v1.205a5.609 5.609 0 0 0-4.247-1.939A5.634 5.634 0 0 0 .517 28.21v17.346a5.634 5.634 0 0 0 5.63 5.63c1.697 0 3.215-.75 4.248-1.938v2.43c0 3.276 2.68 5.956 5.956 5.956h1.512v7.716a5.634 5.634 0 0 0 5.63 5.631 5.634 5.634 0 0 0 5.631-5.63v-7.717h2.615v7.716a5.634 5.634 0 0 0 5.631 5.631 5.634 5.634 0 0 0 5.631-5.63v-7.717h1.512c3.275 0 5.956-2.68 5.956-5.956v-2.43a5.609 5.609 0 0 0 4.247 1.939 5.634 5.634 0 0 0 5.63-5.631V28.21a5.634 5.634 0 0 0-5.63-5.63c-1.696 0-3.215.75-4.247 1.938V23.313c0-6.486-3.572-12.163-8.947-15.49l2.238-4.037A2.077 2.077 0 0 0 42.957.98a2.068 2.068 0 0 0-.983-.255 2.065 2.065 0 0 0-1.823 1.058l-2.34 4.228a21.289 21.289 0 0 0-7.379-1.307c-2.597 0-5.092.458-7.379 1.3l-2.34-4.22A2.066 2.066 0 0 0 18.89.723z" fill="#fff"/><path d="M6.148 24.046a4.14 4.14 0 0 0-4.164 4.164v17.346a4.14 4.14 0 0 0 4.164 4.164 4.14 4.14 0 0 0 4.164-4.164V28.21a4.14 4.14 0 0 0-4.164-4.164zm48.568 0a4.14 4.14 0 0 0-4.164 4.164v17.346a4.14 4.14 0 0 0 4.164 4.164 4.14 4.14 0 0 0 4.164-4.164V28.21a4.14 4.14 0 0 0-4.164-4.164zM23.494 43.84a4.14 4.14 0 0 0-4.165 4.165V65.35a4.14 4.14 0 0 0 4.165 4.165 4.14 4.14 0 0 0 4.164-4.165V48.005a4.14 4.14 0 0 0-4.164-4.165zm13.877 0a4.14 4.14 0 0 0-4.165 4.165V65.35a4.14 4.14 0 0 0 4.164 4.165 4.14 4.14 0 0 0 4.165-4.165V48.005a4.14 4.14 0 0 0-4.164-4.165z" fill="#A4C639"/><path d="M18.902 2.191a.579.579 0 0 0-.28.077.575.575 0 0 0-.23.803l2.933 5.3c-5.643 2.936-9.456 8.517-9.463 14.922h37.14c-.008-6.405-3.82-11.986-9.464-14.922l2.934-5.3a.575.575 0 0 0-.23-.803.581.581 0 0 0-.803.23l-2.972 5.356a19.798 19.798 0 0 0-8.035-1.683c-2.878 0-5.604.605-8.035 1.683l-2.972-5.356a.583.583 0 0 0-.523-.307zm-7.04 22.569v26.918a4.479 4.479 0 0 0 4.49 4.49h28.16a4.48 4.48 0 0 0 4.49-4.49V24.76h-37.14z" fill="#A4C639"/><path d="M21.86 13.396a1.56 1.56 0 0 0-1.549 1.55c0 .847.702 1.55 1.55 1.55a1.56 1.56 0 0 0 1.55-1.55 1.56 1.56 0 0 0-1.55-1.55zm17.143 0a1.56 1.56 0 0 0-1.55 1.55c0 .847.702 1.55 1.55 1.55a1.56 1.56 0 0 0 1.55-1.55 1.56 1.56 0 0 0-1.55-1.55z" fill="#fff"/></g><defs><clipPath id="a"><path fill="#fff" transform="translate(.517 .523)" d="M0 0h60v70.547H0z"/></clipPath></defs></svg>